<?xml version="1.0" encoding="UTF-8"?><svg id="a" xmlns="http://www.w3.org/2000/svg" viewBox="0 0 500 500"><defs><style>.b{fill:none;stroke:#000;stroke-miterlimit:10;stroke-width:23px;}.c{fill:#ff0;}</style></defs><g><circle class="c" cx="250" cy="250" r="211.5"/><path d="M250,48c27.28,0,53.73,5.34,78.62,15.87,24.05,10.17,45.66,24.74,64.21,43.3,18.56,18.56,33.12,40.16,43.3,64.21,10.53,24.89,15.87,51.34,15.87,78.62s-5.34,53.73-15.87,78.62c-10.17,24.05-24.74,45.66-43.3,64.21-18.56,18.56-40.16,33.12-64.21,43.3-24.89,10.53-51.34,15.87-78.62,15.87s-53.73-5.34-78.62-15.87c-24.05-10.17-45.66-24.74-64.21-43.3-18.56-18.56-33.12-40.16-43.3-64.21-10.53-24.89-15.87-51.34-15.87-78.62s5.34-53.73,15.87-78.62c10.17-24.05,24.74-45.66,43.3-64.21,18.56-18.56,40.16-33.12,64.21-43.3,24.89-10.53,51.34-15.87,78.62-15.87m0-19C127.95,29,29,127.95,29,250s98.95,221,221,221,221-98.95,221-221S372.05,29,250,29h0Z"/></g><circle cx="158" cy="170" r="36"/><circle cx="337" cy="170" r="36"/><path class="b" d="M386.5,257.5c0,75.66-61.34,137-137,137s-137-61.34-137-137"/></svg>