<?xml version="1.0" encoding="UTF-8"?><svg xmlns="http://www.w3.org/2000/svg" viewBox="0 0 207.42 255.66"><defs><style>.d{fill:#f89a30;}.e{fill:#d72f27;}</style></defs><g id="a"/><g id="b"><g id="c"><g><path class="d" d="M176.44,0c-9.94,1.26-19.9,3.12-29.82,5.61v-.02c-9.69,2.45-19.32,5.49-28.84,9.16-.32,.12-.63,.25-.95,.37-.79,.31-1.58,.62-2.37,.94-.62,.25-1.24,.5-1.86,.75-.35,.15-.71,.29-1.06,.44-23.53,9.78-44.83,22.82-63.57,38.41-.17,.14-.34,.28-.51,.42-.74,.62-1.47,1.24-2.2,1.86-.41,.35-.82,.7-1.23,1.06-.47,.41-.94,.82-1.41,1.24-.65,.57-1.3,1.14-1.94,1.72-.22,.2-.43,.39-.65,.59C24.65,76.49,11.26,92.12,0,109.03l25.26,16.8c22.22-31.07,82.18-89.11,155.28-93.06L176.44,0Z"/><g><path class="d" d="M207.42,247l-25.78-205.45c-30.14,1.5-62.01,13.38-92.19,34.4-22.06,15.37-43.21,35.76-56.84,54.77l89.87,59.78v26.21c0,6.44,5.22,11.66,11.66,11.66h0c6.44,0,11.66-5.22,11.66-11.66v-10.7l6.08,4.04v33.95c0,6.44,5.22,11.66,11.66,11.66s11.66-5.22,11.66-11.66v-18.44l32.23,21.44Z"/><circle class="e" cx="94.05" cy="123.7" r="18.68"/><circle class="e" cx="157.72" cy="115.34" r="18.68"/><circle class="e" cx="158.99" cy="172.46" r="18.68"/></g></g></g></g></svg>