<?xml version="1.0" encoding="UTF-8"?><svg xmlns="http://www.w3.org/2000/svg" viewBox="0 0 253.76 229.8"><defs><style>.d{fill:#253333;}.e{fill:#0fbbd1;}</style></defs><g id="a"/><g id="b"><g id="c"><g><path class="d" d="M189.37,229.8c-3.07,0-5.57-2.49-5.57-5.57s2.49-5.57,5.57-5.57c29.37,0,53.26-23.89,53.26-53.26,0-3.07,2.49-5.57,5.57-5.57s5.57,2.49,5.57,5.57c0,35.5-28.88,64.39-64.39,64.39Z"/><g><path class="e" d="M166.83,76.99H71.78v61.58c52.5,0,95.05-27.57,95.05-61.58Z"/><g><path class="e" d="M71.78,111.65v26.92c21.37,0,41.1-4.57,56.98-12.29-16.9-9.32-36.32-14.63-56.98-14.63Z"/><path class="e" d="M137.12,131.35c-18.36,10.07-41.25,15.56-65.34,15.56v82.88h118.15c0-41.09-20.98-77.28-52.81-98.44Z"/></g></g><circle class="d" cx="170.7" cy="69.44" r="11.66"/><circle class="e" cx="49.19" cy="49.19" r="49.19"/><circle class="d" cx="94.54" cy="94.54" r="8.65"/></g></g></g></svg>