<?xml version="1.0" encoding="UTF-8"?><svg xmlns="http://www.w3.org/2000/svg" viewBox="0 0 442 442"><defs><style>.d{fill:none;stroke:#000;stroke-miterlimit:10;stroke-width:23px;}.e{fill:#ff0;}</style></defs><g id="a"/><g id="b"><g id="c"><g><g><circle class="e" cx="221" cy="221" r="211.5"/><path d="M221,19c27.28,0,53.73,5.34,78.62,15.87,24.05,10.17,45.66,24.74,64.21,43.3,18.56,18.56,33.12,40.16,43.3,64.21,10.53,24.89,15.87,51.34,15.87,78.62s-5.34,53.73-15.87,78.62c-10.17,24.05-24.74,45.66-43.3,64.21-18.56,18.56-40.16,33.12-64.21,43.3-24.89,10.53-51.34,15.87-78.62,15.87s-53.73-5.34-78.62-15.87c-24.05-10.17-45.66-24.74-64.21-43.3-18.56-18.56-33.12-40.16-43.3-64.21-10.53-24.89-15.87-51.34-15.87-78.62s5.34-53.73,15.87-78.62c10.17-24.05,24.74-45.66,43.3-64.21,18.56-18.56,40.16-33.12,64.21-43.3,24.89-10.53,51.34-15.87,78.62-15.87m0-19C98.95,0,0,98.95,0,221s98.95,221,221,221,221-98.95,221-221S343.05,0,221,0h0Z"/></g><circle cx="129" cy="141" r="36"/><circle cx="308" cy="141" r="36"/><path class="d" d="M357.5,228.5c0,75.66-61.34,137-137,137s-137-61.34-137-137"/></g></g></g></svg>